<svg width="92" height="92" viewBox="0 0 92 92" fill="none" xmlns="http://www.w3.org/2000/svg">
<path fill-rule="evenodd" clip-rule="evenodd" d="M38.8511 8.40398C38.3588 8.7488 38.3363 8.91298 38.3363 12.1812V15.5979L37.1439 15.9035C35.71 16.2708 33.6949 17.076 31.525 18.1484L29.9232 18.9402L27.5635 16.6179C25.8815 14.9631 25.0423 14.2959 24.6419 14.2959C23.9113 14.2959 14.2525 23.9082 14.2525 24.6353C14.2525 24.922 15.1635 26.0382 16.5683 27.4728C17.8419 28.7735 18.884 29.8717 18.884 29.9131C18.884 29.9546 18.3771 31.0465 17.7574 32.3398C17.1377 33.6329 16.3823 35.5203 16.0785 36.5341L15.5262 38.3774L12.1237 38.3786C8.87072 38.3797 8.70515 38.4024 8.36056 38.8945C8.05419 39.3317 8 40.4259 8 46.1722V52.9354L8.6102 53.4152C9.16019 53.848 9.53395 53.8953 12.4011 53.8953H15.5818L15.8863 54.9952C16.2996 56.4882 17.8308 60.2351 18.4116 61.175C18.6714 61.5954 18.884 61.9999 18.884 62.0743C18.884 62.1484 17.8419 63.2666 16.5683 64.5591C14.8197 66.3336 14.2525 67.058 14.2525 67.5172C14.2525 68 15.2666 69.1391 19.1795 73.0521C22.0881 75.9606 24.2841 77.979 24.5402 77.979C24.779 77.979 26.0788 76.8988 27.4289 75.5785L29.8838 73.178L32.1542 74.2748C33.4031 74.8783 35.3048 75.6522 36.3804 75.9947L38.3363 76.6179V79.9257C38.3363 82.8361 38.3873 83.2796 38.7599 83.6167C39.1336 83.9551 39.9826 84 46.0102 84C51.5356 84 52.9228 83.9375 53.2866 83.6719C53.6904 83.3768 53.7435 82.9926 53.8099 79.8905L53.884 76.4375L55.0787 76.1311C56.4828 75.7712 58.7346 74.8611 60.6833 73.8661L62.0727 73.1565L64.5277 75.5677C65.8812 76.8976 67.1771 77.979 67.4163 77.979C67.9957 77.979 77.9356 68.0392 77.9356 67.4598C77.9356 67.221 76.8542 65.9223 75.5298 64.5711L73.1237 62.1162L74.1329 60.1478C74.688 59.0652 75.4272 57.2936 75.7753 56.211C76.1236 55.1284 76.5636 54.1125 76.7532 53.9532C76.9908 53.7535 78.0498 53.6637 80.1666 53.6637C83.0754 53.6637 83.2544 53.6368 83.596 53.1489C83.9024 52.7117 83.9566 51.6193 83.9566 45.8902C83.9566 39.6509 83.9249 39.1175 83.533 38.763C83.1803 38.4439 82.5514 38.3795 79.7699 38.3786L76.4304 38.3774L75.8781 36.5341C75.5743 35.5203 74.8163 33.6276 74.1936 32.328L73.0614 29.965L75.3828 27.6062C77.0371 25.9249 77.7041 25.0857 77.7041 24.6853C77.7041 23.9313 68.0902 14.2959 67.3378 14.2959C67.0083 14.2959 66.0406 15.1153 64.4957 16.7029L62.1531 19.1097L60.1641 18.0947C59.0701 17.5366 57.1502 16.7439 55.8976 16.3333L53.6203 15.587V12.1756C53.6203 8.91298 53.5978 8.7488 53.1055 8.40398C52.3369 7.86534 39.6197 7.86534 38.8511 8.40398ZM51.0729 13.8328C51.0729 17.5806 51.167 17.7842 53.0865 18.1959C54.9951 18.6053 58.0795 19.8151 59.9902 20.9039C60.9881 21.4727 62.0232 21.9379 62.2904 21.9379C62.5963 21.9379 63.5889 21.1223 64.9674 19.738C66.1723 18.528 67.2533 17.538 67.3698 17.538C67.486 17.538 69.1807 19.122 71.1359 21.0579L74.6906 24.5776L72.3762 26.9295C71.1035 28.2229 70.0621 29.4426 70.0621 29.6399C70.0621 29.8372 70.4046 30.6079 70.8235 31.3524C72.2484 33.886 73.9989 38.3272 73.9989 39.4086C73.9989 39.6184 74.2547 40.0459 74.5674 40.3585C75.1148 40.9062 75.2507 40.9271 78.2726 40.9271H81.4093V45.9888V51.0504L79.9858 51.1993C79.203 51.281 77.7048 51.3479 76.6564 51.3479C74.6033 51.3479 74.4018 51.4498 74.1376 52.6216C73.5371 55.2847 72.1377 58.8385 70.946 60.7267C69.7992 62.5437 69.7759 62.4714 72.3528 65.0901L74.6832 67.4581L71.0375 71.0985L67.3918 74.7389L65.2175 72.5556C64.0217 71.3548 62.8578 70.3239 62.6308 70.2646C62.4039 70.2051 61.925 70.3135 61.5665 70.5054C58.6994 72.0396 56.5423 72.9807 54.3949 73.634C53.0135 74.0541 51.7533 74.4802 51.594 74.5812C51.3842 74.7138 51.3045 75.6853 51.3045 78.1085V81.4527H46.0941H40.8836V78.3521C40.8836 74.7472 40.7729 74.5052 38.9153 74.0448C36.27 73.3895 34.0286 72.4692 30.8449 70.7308C29.8213 70.172 29.6673 70.1463 29.1081 70.4422C28.7707 70.6208 27.6105 71.6608 26.5299 72.7531L24.5652 74.7395L20.9193 71.099L17.2734 67.4581L19.5838 65.1102C20.8547 63.8189 21.8945 62.6328 21.8945 62.4749C21.8945 62.3167 21.433 61.3378 20.8686 60.2992C19.6461 58.0488 19.0308 56.5392 18.2585 53.8953C17.9422 52.8126 17.5761 51.7967 17.4448 51.6374C17.2741 51.4304 16.2587 51.3479 13.8769 51.3479H10.5473V46.1375V40.9271H13.5427C17.2431 40.9271 17.6273 40.8015 17.9399 39.4899C18.6191 36.6395 19.7522 33.7649 21.1312 31.3936C21.5511 30.6715 21.8945 29.8879 21.8945 29.6521C21.8945 29.4164 20.9045 28.2374 19.6945 27.0326C18.4846 25.8277 17.4946 24.7518 17.4946 24.6416C17.4946 24.5316 19.0776 22.836 21.0124 20.8736L24.5303 17.3055L26.884 19.6217C28.1785 20.8956 29.4112 21.9379 29.6233 21.9379C29.8354 21.9379 30.3975 21.6968 30.8727 21.4025C32.9087 20.1402 38.2497 18.0011 39.3652 18.0011C39.575 18.0011 40.0025 17.7453 40.3151 17.4326C40.8628 16.8852 40.8836 16.7492 40.8836 13.7274V10.5907H45.9783H51.0729V13.8328ZM42.852 20.457C31.7357 22.0996 23.3136 29.7918 20.82 40.5797C20.2209 43.1722 20.2209 48.8712 20.82 51.4637C23.0927 61.2955 30.3546 68.6612 40.1583 71.0783C43.0653 71.7953 48.9591 71.8036 51.7834 71.095C56.8489 69.8244 60.7375 67.6038 64.3195 63.9366C67.8012 60.3722 69.828 56.7228 71.0375 51.8417C71.7178 49.0949 71.7695 43.3046 71.1377 40.5797C68.8722 30.8084 61.5758 23.376 51.9041 20.9873C50.0769 20.5362 44.5201 20.2106 42.852 20.457ZM49.884 23.2195C58.1154 24.781 64.6059 30.0759 67.5166 37.6044C69.9312 43.8502 69.6022 50.4705 66.5757 56.5266C62.0093 65.6644 51.6533 70.7247 41.6312 68.7156C31.9993 66.7847 25.0275 59.6869 23.176 49.9275C21.4473 40.8147 26.0561 30.857 34.2127 26.0822C38.8439 23.3711 44.8753 22.2693 49.884 23.2195ZM44.8797 25.1952C43.8105 25.5208 42.5725 26.8515 42.2566 28.0144C42.1091 28.557 41.9558 29.1204 41.9158 29.2663C41.8757 29.4125 41.2884 29.6051 40.6106 29.6945C39.0341 29.9025 37.5221 30.5588 37.19 31.1791C36.9626 31.6041 36.7192 31.6641 35.2184 31.6641C32.8214 31.6641 32.7785 31.7254 32.7785 35.1541C32.7785 37.6079 32.8304 37.9685 33.2417 38.3797C33.8185 38.9566 34.4433 38.9712 34.9426 38.4193C35.2372 38.094 35.3258 37.5315 35.3258 35.9878V33.9798H36.1963C36.8163 33.9798 37.1504 34.1132 37.3563 34.443C37.637 34.8925 37.8963 34.9061 46.2099 34.9061C54.5234 34.9061 54.7828 34.8925 55.0634 34.443C55.2566 34.1338 55.6035 33.9798 56.1076 33.9798H56.8623V38.5597C56.8623 43.5408 57.0045 44.1691 58.1325 44.1691C59.3529 44.1691 59.4096 43.8954 59.4096 38.0007C59.4096 34.6931 59.3156 32.3843 59.17 32.1119C58.9657 31.7303 58.6735 31.6641 57.1942 31.6641C55.8753 31.6641 55.4268 31.5816 55.3267 31.3213C55.0942 30.7155 53.7076 30.0407 52.0946 29.7482L50.5241 29.4636L50.2555 28.4104C49.91 27.0557 49.3609 26.2309 48.4158 25.6468C47.5071 25.0853 45.9107 24.8812 44.8797 25.1952ZM47.295 27.9992C47.6141 28.299 47.8309 28.7719 47.8309 29.1686C47.8309 29.9259 48.3116 30.9668 48.8792 31.4376C49.0904 31.6129 49.8528 31.8831 50.5734 32.0383C51.7301 32.287 51.2195 32.3192 46.2099 32.3134C42.0563 32.3088 40.8369 32.2495 41.6583 32.0922C42.2752 31.9741 43.0218 31.7192 43.3173 31.5256C43.9344 31.1213 44.5888 29.8712 44.5888 29.0966C44.5888 28.3789 45.4654 27.4957 46.1774 27.4957C46.4972 27.4957 47.0002 27.7222 47.295 27.9992ZM31.9844 39.9014C31.7844 40.1017 31.6206 40.4602 31.6206 40.6983C31.6206 41.2487 31.1952 41.5206 30.8595 41.1848C30.7177 41.0431 30.2951 40.9271 29.9202 40.9271C28.5229 40.9271 26.2669 43.9269 27.2207 44.5165C27.6135 44.7592 27.4764 45.327 27.025 45.327C26.1717 45.327 25.8313 46.0618 25.8313 47.9042C25.8313 49.7691 26.0367 50.1901 26.9468 50.1901C27.4206 50.1901 27.4815 50.27 27.3448 50.7111C26.8743 52.2288 26.8866 52.2717 28.1662 53.5673C29.4563 54.8737 30.0135 55.064 30.8439 54.4823C31.4018 54.0916 31.6206 54.2227 31.6206 54.9475C31.6206 55.8032 32.1271 56.0051 34.0881 55.9317L35.9048 55.8636L36.3353 54.9823C36.7322 54.1699 36.797 54.1292 37.1641 54.4612C37.8375 55.0707 38.4192 54.8709 39.6757 53.5986C40.8584 52.4011 41.2465 51.3681 40.6521 51.0006C40.2253 50.7368 40.4145 50.4598 41.1291 50.3028C41.973 50.1176 42.2731 49.4803 42.2731 47.8743C42.2731 46.2556 41.9549 45.5759 41.1192 45.4087C40.4362 45.2723 40.1903 44.802 40.6521 44.5165C41.6543 43.897 39.4076 40.9271 37.9368 40.9271C37.5348 40.9271 37.1414 41.0313 37.0627 41.1586C36.8012 41.5815 36.4837 41.3983 36.4837 40.8245C36.4837 39.9387 35.6788 39.5376 33.9014 39.5376C32.7984 39.5376 32.2431 39.643 31.9844 39.9014ZM35.3858 43.5978C35.7374 43.6856 36.0822 43.85 36.1521 43.9632C36.2223 44.0765 36.5826 44.1691 36.9534 44.1691C37.416 44.1691 37.5904 44.2648 37.5098 44.4746C37.3864 44.7962 38.2759 46.8961 38.8062 47.5351C39.0227 47.796 39.0405 47.957 38.865 48.0656C38.5028 48.29 37.3753 50.9235 37.501 51.2514C37.5675 51.4244 37.4468 51.4853 37.1775 51.4149C36.9413 51.353 36.4541 51.451 36.0949 51.6323C33.8012 52.7909 34.1233 52.7575 32.5349 52.001C31.7394 51.6221 30.9032 51.3604 30.6772 51.4195C30.3945 51.4934 30.3048 51.4253 30.3907 51.2013C30.5339 50.8285 29.6629 48.6543 29.1277 48.048C28.9309 47.825 28.8746 47.6427 29.0027 47.6427C29.319 47.6427 30.5429 44.7177 30.3544 44.4125C30.2634 44.2654 30.4609 44.1638 30.8544 44.1557C31.2121 44.1483 32.078 43.8574 32.7785 43.5094C33.8051 42.9994 34.1196 42.9311 34.3995 43.1574C34.5906 43.3118 35.0345 43.51 35.3858 43.5978ZM55.0141 49.6116L49.5543 55.0541L48.1972 53.6827C47.4506 52.9284 46.6346 52.2576 46.3835 52.192C45.9056 52.067 44.8204 52.9421 44.8204 53.4527C44.8204 53.9756 49.0464 58.0636 49.5872 58.0636C50.3358 58.0636 62.1885 46.1887 62.1885 45.4386C62.1885 44.7629 61.6172 44.1691 60.9672 44.1691C60.6326 44.1691 58.717 45.9205 55.0141 49.6116ZM57.2229 52.5574C56.9304 52.975 56.8623 53.8265 56.8623 57.0732V61.0741H46.0941H35.3258V59.6131C35.3258 58.7641 35.1971 57.9761 35.0183 57.7315C34.62 57.1869 33.4844 57.1869 33.0861 57.7315C32.6259 58.3607 32.6662 62.4316 33.1391 63.1066L33.4994 63.6214H46.0906C57.2284 63.6214 58.7239 63.5795 59.0458 63.2576C59.3543 62.9489 59.4096 62.1264 59.4096 57.8515C59.4096 53.2607 59.3717 52.7749 58.9861 52.4259C58.3965 51.8921 57.6497 51.9479 57.2229 52.5574Z" fill="white"/>
</svg>
